<svg xmlns="http://www.w3.org/2000/svg" viewBox="0 0 785.38 125.14"><defs><style>.cls-1{fill:#303778;}</style></defs><title>Asset 1</title><g id="Layer_2" data-name="Layer 2"><g id="Layer_2-2" data-name="Layer 2"><path class="cls-1" d="M161.32,109.79l-7-7-2.86-2.86L135.08,83.55l-1.41-1.41H103L119.8,99a38.47,38.47,0,0,1-19.3,5.19c-22.37,0-40.5-19.25-40.5-43,0-23.22,17.32-42.13,39-43V.14H0v21H38v41a63,63,0,0,0,97.63,52.63l2.89,2.89,6.48,6.48h31l-14.51-14.51Z"/><path class="cls-1" d="M38,85v40.16H60v-10A67.11,67.11,0,0,1,38,85Z"/><path class="cls-1" d="M141,61.14a45.12,45.12,0,0,1-4,18.67l16.76,16.76A62.63,62.63,0,0,0,164,62.14c0-34.79-26.21-62-61-62V18.23C124.21,19.59,141,38.28,141,61.14Z"/><rect class="cls-1" x="187" y="0.14" width="3" height="124"/><path class="cls-1" d="M228,81.64a21.5,21.5,0,1,0,13.89,37.88l4.83,4.83,2.12-2.13-4.81-4.8a21.47,21.47,0,0,0-16-35.78Zm0,40a18.5,18.5,0,1,1,18.5-18.5A18.52,18.52,0,0,1,228,121.64Z"/><path class="cls-1" d="M292.5,106.64a14,14,0,0,1-28,0V83.14h-3v23.5a17,17,0,0,0,34,0V83.14h-3Z"/><polygon class="cls-1" points="407.63 86.11 422.77 86.11 422.77 124.35 425.77 124.35 425.77 86.11 440.9 86.11 440.9 83.11 407.63 83.11 407.63 86.11"/><path class="cls-1" d="M470.78,101.18C459.14,98.5,456.64,97.5,456.64,93c0-5.4,5.08-8.75,13.27-8.75,8.5,0,12,5.84,12.19,6.09l1.29-.76,1.3-.75c-.18-.31-4.5-7.58-14.78-7.58-9.88,0-16.27,4.61-16.27,11.75,0,7.36,5.5,8.62,16.47,11.15,11.28,2.59,12.27,4.83,11.94,9.68-.22,3.23-1.79,7.52-12.86,7.52-6.62,0-12.54-3.61-14.23-7l-2.68,1.35c2.14,4.23,9.05,8.61,16.91,8.61,10.06,0,15.39-3.47,15.85-10.32C485.53,106.72,482.33,103.84,470.78,101.18Z"/><polygon class="cls-1" points="206.78 12 227.39 12 227.39 65.92 239.39 65.92 239.39 12 259.99 12 259.99 0 206.78 0 206.78 12"/><path class="cls-1" d="M336,66.3,317.46,44.07A22.43,22.43,0,0,0,310.09.46H277.8V66.61h12V45.32h13.09l17.48,21Zm-46.18-33V12.46h20.29a10.43,10.43,0,1,1,0,20.86Z"/><path class="cls-1" d="M706,22.89A22.45,22.45,0,0,0,683.58.46H651.29V66.61h12V45.32h13.09l17.48,21h15.61L691,44.07A22.45,22.45,0,0,0,706,22.89ZM663.29,33.32V12.46h20.29a10.43,10.43,0,0,1,0,20.86Z"/><polygon class="cls-1" points="350.82 66.8 400.11 66.8 400.11 54.8 362.82 54.8 362.82 40.48 397.95 40.48 397.95 28.48 362.82 28.48 362.82 12.1 400.11 12.1 400.11 0.1 350.82 0.1 350.82 66.8"/><path class="cls-1" d="M443.1.46,413.29,66.17h13.17L432,54h35.54L473,66.17H486.2L456.37.46ZM437.41,42l12.32-27.15L462.06,42Z"/><path class="cls-1" d="M528.91,27.1c-13.95-3-17-6.83-17-8,0-2.08,0-7,12.38-7,10.76,0,14.89,6,15.06,6.31l-.05-.09,10.24-6.26c-.3-.48-7.5-12-25.25-12-22,0-24.38,13.26-24.38,19,0,14,19.91,18.34,26.45,19.77,13.48,2.92,13,6,12.51,9.34-1,6.93-8.63,8-13.06,8-9.06,0-15.15-3-18.61-9.18l-10.47,5.87c3.91,7,12.14,15.31,29.08,15.31,13.68,0,23.22-7,24.92-18.18C553.38,32.41,536.23,28.69,528.91,27.1Z"/><path class="cls-1" d="M617.94,37.56a17.24,17.24,0,0,1-34.48,0V.36h-12v37.2a29.24,29.24,0,0,0,58.48,0V.36h-12Z"/><polygon class="cls-1" points="770.72 0.1 752.29 26.38 733.96 0.1 719.32 0.1 746.29 38.7 746.29 66.68 758.29 66.68 758.29 38.73 785.38 0.1 770.72 0.1"/><path class="cls-1" d="M325.69,82.33l-18.92,42.31h3.37l4.79-10.81h24.48l4.92,10.81h3.38L328.25,82.33Zm-9.42,28.5,10.72-24,11,24Z"/><polygon class="cls-1" points="390.5 117.24 362.6 83.11 361.32 83.11 361.32 124.35 364.32 124.35 364.32 89.95 392.17 124.03 393.5 124.03 393.5 83.14 390.5 83.14 390.5 117.24"/></g></g></svg>