<svg xmlns="http://www.w3.org/2000/svg" viewBox="0 0 142.58 40"><defs><style>.cls-1{fill:#abb3c5;}.cls-2{fill:#303778;}</style></defs><title>Asset 8</title><g id="Layer_2" data-name="Layer 2"><g id="Capa_1" data-name="Capa 1"><path class="cls-1" d="M80.39,31.2q0-3-.87-3.84c-.58-.56-1.91-.83-4-.83s-3.47.29-4,.88-.84,2-.84,4.22c0,1.92.3,3.14.89,3.68s1.93.82,4,.82c1.91,0,3.2-.3,3.88-.89l1,.62.86-1.08-1.14-.68A13,13,0,0,0,80.39,31.2Zm-2.11.09v1q0,.18-.06.69L76,31.61l-.87,1.07,2.55,1.49a3.27,3.27,0,0,1-1.79.42,5.15,5.15,0,0,1-2.68-.39c-.29-.26-.43-1.09-.43-2.47,0-1.83.11-2.9.35-3.21s1-.46,2.44-.46a4.32,4.32,0,0,1,2.26.37c.33.25.49.81.49,1.69Z"/><path class="cls-1" d="M91.14,32.92c0,.74-.14,1.2-.42,1.39a4.55,4.55,0,0,1-2.07.28,4.49,4.49,0,0,1-2-.28c-.29-.18-.43-.63-.43-1.32V26.61H84.11V33A2.93,2.93,0,0,0,85,35.53a7.62,7.62,0,0,0,3.75.6,6.81,6.81,0,0,0,3.59-.64,3.08,3.08,0,0,0,.88-2.6V26.61H91.14Z"/><path class="cls-1" d="M99.76,26.61,96.12,36h2.2L99,34.23h4.72l.7,1.81h2.16l-3.7-9.43Zm-.27,6.3L101.35,28l1.89,4.91Z"/><path class="cls-1" d="M117.57,32l0,1.22,0,.61,0,.6h-.08l-.41-.77-.42-.77c-.33-.6-.62-1.11-.87-1.54L113,26.61h-3.52V36h2.08V30.63l0-1.24,0-.61,0-.62h.08l.34.67.35.68c.34.65.58,1.1.73,1.36L116.13,36h3.52V26.61h-2.08Z"/><polygon class="cls-1" points="122.67 28.21 125.83 28.21 125.83 36.04 127.9 36.04 127.9 28.21 131.17 28.21 131.17 26.61 122.67 26.61 122.67 28.21"/><path class="cls-1" d="M141.86,31.14a7.07,7.07,0,0,0-3.16-.61,9.69,9.69,0,0,1-2.44-.27c-.24-.12-.37-.48-.37-1.07a1,1,0,0,1,.46-1,4.85,4.85,0,0,1,1.92-.24,3.64,3.64,0,0,1,1.59.21c.23.13.36.47.41,1,0,0,0,.1,0,.19h2V29a2.09,2.09,0,0,0-.85-2,7.35,7.35,0,0,0-3.33-.5,7.28,7.28,0,0,0-3.48.55,2.41,2.41,0,0,0-.87,2.2,2.44,2.44,0,0,0,.73,2.11,7.81,7.81,0,0,0,3.31.62l1.15.06a2.48,2.48,0,0,1,1.26.27,1.1,1.1,0,0,1,.3.91c0,.62-.13,1-.39,1.18a3.84,3.84,0,0,1-1.78.26,6.12,6.12,0,0,1-2.19-.22c-.26-.15-.4-.55-.4-1.21v-.2h-2v.34a2.4,2.4,0,0,0,.85,2.19,7.17,7.17,0,0,0,3.43.54,8,8,0,0,0,3.71-.55q.84-.55.84-2.43A2.28,2.28,0,0,0,141.86,31.14Z"/><polygon class="cls-1" points="72.55 21.57 73.36 21.57 73.36 15.49 75.62 15.49 75.62 14.74 70.29 14.74 70.29 15.49 72.55 15.49 72.55 21.57"/><path class="cls-1" d="M81.47,17.8h0c0-.25,0-.5,0-.74h-.71c0,.29,0,.65,0,1.07v3.44h.76v-2.2c0-1,.4-1.68,1.32-1.68a1.34,1.34,0,0,1,.4.06l0-.76a.87.87,0,0,0-.31,0A1.62,1.62,0,0,0,81.47,17.8Z"/><path class="cls-1" d="M91.23,16.94a2.25,2.25,0,0,0-2.31,2.37,2.23,2.23,0,0,0,2.28,2.37,2.33,2.33,0,0,0,2-.93l-.57-.44A1.69,1.69,0,0,1,91.2,21a1.51,1.51,0,0,1-1.47-1.45h3.64V19.3A2.1,2.1,0,0,0,91.23,16.94Zm-1.5,2a1.41,1.41,0,0,1,1.47-1.28,1.26,1.26,0,0,1,1.36,1.28Z"/><path class="cls-1" d="M102.33,18.76c-1.11,0-2.84.09-2.84,1.58,0,.88.76,1.34,1.67,1.34a1.69,1.69,0,0,0,1.49-.79h0a3.12,3.12,0,0,0,0,.68h.72a4.81,4.81,0,0,1-.07-.78V18.85c0-1.27-.56-1.91-1.89-1.91a2.52,2.52,0,0,0-1.79.69l.47.5a2,2,0,0,1,1.34-.5c.7,0,1.12.34,1.12,1v.13Zm.29.93a1.29,1.29,0,0,1-1.33,1.36c-.57,0-1-.21-1-.78s.61-.87,1.57-.87h.75Z"/><path class="cls-1" d="M111.21,21a1.4,1.4,0,0,1-1.16-.61l-.6.47a1.93,1.93,0,0,0,1.76.83c.9,0,1.8-.39,1.8-1.41s-.67-1.2-1.47-1.35c-.6-.12-1.14-.28-1.14-.66s.47-.63.89-.63a1.08,1.08,0,0,1,.95.54l.63-.41a1.65,1.65,0,0,0-1.54-.82c-.83,0-1.68.45-1.68,1.33s.73,1.12,1.59,1.31c.48.11,1,.23,1,.72S111.68,21,111.21,21Z"/><path class="cls-1" d="M123.2,20.5V17.06h-.75v2.19c0,1-.42,1.74-1.4,1.74-.7,0-1-.47-1-1.22V17.06h-.75v2.78A1.61,1.61,0,0,0,121,21.68a1.64,1.64,0,0,0,1.51-.85h0c0,.25,0,.5,0,.74h.71C123.24,21.27,123.2,20.91,123.2,20.5Z"/><path class="cls-1" d="M130.55,17.8h0c0-.25,0-.5,0-.74h-.71c0,.29,0,.65,0,1.07v3.44h.76v-2.2c0-1,.4-1.68,1.32-1.68a1.34,1.34,0,0,1,.4.06l.05-.76a.87.87,0,0,0-.31,0A1.62,1.62,0,0,0,130.55,17.8Z"/><path class="cls-1" d="M139.38,22.45c-.17.44-.35.74-.84.74a1.41,1.41,0,0,1-.53-.08l-.1.66a1.77,1.77,0,0,0,.68.11c.9,0,1.2-.52,1.5-1.28l2.18-5.54h-.82l-1.34,3.53h0l-1.4-3.53h-.87l1.87,4.54Z"/><polygon class="cls-2" points="0 8.2 10.41 8.2 10.41 35.79 19.75 35.79 19.75 8.2 30.16 8.2 30.16 0 0 0 0 8.2"/><path class="cls-2" d="M55.85,25.6l-.74.9a4.39,4.39,0,0,1-3.23,1.42H47a4.39,4.39,0,0,1-4.39-4.39V12.67A4.39,4.39,0,0,1,47,8.27h4.91a4.39,4.39,0,0,1,4.39,4.4v9.41L65,29a15.1,15.1,0,0,0,.86-5.48v-11c0-2.93-.48-6.29-2.93-8.62S57,0,49.36,0,38.29,1.58,35.85,3.91s-2.94,5.69-2.94,8.62v11c0,2.93.48,6.29,2.94,8.62s5.86,3.91,13.51,3.91a30,30,0,0,0,8.15-.91L63.56,40l4.08-5Z"/></g></g></svg>