<?xml version="1.0" encoding="UTF-8" standalone="no"?>
<svg
   xmlns:dc="http://purl.org/dc/elements/1.1/"
   xmlns:cc="http://creativecommons.org/ns#"
   xmlns:rdf="http://www.w3.org/1999/02/22-rdf-syntax-ns#"
   xmlns:svg="http://www.w3.org/2000/svg"
   xmlns="http://www.w3.org/2000/svg"
   xmlns:sodipodi="http://sodipodi.sourceforge.net/DTD/sodipodi-0.dtd"
   xmlns:inkscape="http://www.inkscape.org/namespaces/inkscape"
   viewBox="0 0 126.28 110.39"
   version="1.1"
   id="svg38"
   sodipodi:docname="vertical-TQlogo.svg"
   inkscape:version="1.0.1 (3bc2e813f5, 2020-09-07)">
  <metadata
     id="metadata44">
    <rdf:RDF>
      <cc:Work
         rdf:about="">
        <dc:format>image/svg+xml</dc:format>
        <dc:type
           rdf:resource="http://purl.org/dc/dcmitype/StillImage" />
        <dc:title>Asset 17</dc:title>
      </cc:Work>
    </rdf:RDF>
  </metadata>
  <defs
     id="defs42" />
  <sodipodi:namedview
     pagecolor="#ffffff"
     bordercolor="#666666"
     borderopacity="1"
     objecttolerance="10"
     gridtolerance="10"
     guidetolerance="10"
     inkscape:pageopacity="0"
     inkscape:pageshadow="2"
     inkscape:window-width="1440"
     inkscape:window-height="837"
     id="namedview40"
     showgrid="false"
     inkscape:zoom="3.0346952"
     inkscape:cx="73.389849"
     inkscape:cy="69.950268"
     inkscape:window-x="-8"
     inkscape:window-y="-8"
     inkscape:window-maximized="1"
     inkscape:current-layer="svg38" />
  <title
     id="title2">Asset 17</title>
  <g
     id="g95">
    <path
       d="m 25.27,103.54 c 0,-2.79 -0.41,-4.57 -1.21,-5.35 C 23.26,97.41 21.39,97 18.47,97 c -2.92,0 -4.83,0.41 -5.62,1.24 -0.79,0.83 -1.17,2.77 -1.17,5.87 q 0,4 1.24,5.12 c 0.82,0.76 2.69,1.13 5.6,1.13 q 4,0 5.4,-1.24 l 1.45,0.87 1.19,-1.5 -1.6,-0.94 a 17,17 0 0 0 0.31,-4.01 z m -2.94,0.12 V 105 a 9.35,9.35 0 0 1 -0.09,1 l -3.14,-1.9 -1.21,1.5 3.55,2.07 a 4.58,4.58 0 0 1 -2.5,0.59 c -2.09,0 -3.33,-0.18 -3.73,-0.55 -0.4,-0.37 -0.6,-1.51 -0.6,-3.43 0,-2.55 0.17,-4 0.49,-4.47 0.32,-0.47 1.46,-0.64 3.41,-0.64 a 6.11,6.11 0 0 1 3.13,0.51 c 0.46,0.35 0.69,1.13 0.69,2.36 z"
       id="path4" />
    <path
       d="m 40.22,105.93 c 0,1 -0.19,1.67 -0.58,1.93 a 6.21,6.21 0 0 1 -2.88,0.4 6.31,6.31 0 0 1 -2.83,-0.39 c -0.4,-0.26 -0.6,-0.87 -0.6,-1.84 V 97.15 H 30.44 V 106 c 0,1.79 0.41,3 1.24,3.53 0.83,0.53 2.56,0.83 5.22,0.83 2.66,0 4.18,-0.29 5,-0.88 0.82,-0.59 1.22,-1.8 1.22,-3.63 v -8.7 h -2.9 z"
       id="path6" />
    <path
       d="m 52.22,97.15 -5.06,13.13 h 3.06 l 0.94,-2.52 h 6.57 l 1,2.52 h 3 L 56.56,97.15 Z m -0.38,8.77 2.59,-6.84 2.63,6.84 z"
       id="path8" />
    <path
       d="m 77,104.71 v 1.69 0.85 0.85 0 l -0.58,-1.1 -0.58,-1 c -0.46,-0.84 -0.87,-1.55 -1.22,-2.14 l -4,-6.66 h -4.9 v 13.13 h 2.89 v -7.53 -1.72 -0.86 -0.87 h 0.11 l 0.48,1 0.49,0.94 c 0.47,0.9 0.8,1.53 1,1.88 l 4.31,7.11 h 4.9 V 97.15 H 77 Z"
       id="path10" />
    <polygon
       points="91.38,99.38 95.94,99.38 95.94,97.15 84.1,97.15 84.1,99.38 88.5,99.38 88.5,110.28 91.38,110.28 "
       id="polygon12" />
    <path
       d="m 110.81,103.45 c -0.67,-0.45 -2.13,-0.73 -4.4,-0.84 a 13.45,13.45 0 0 1 -3.39,-0.38 c -0.34,-0.17 -0.52,-0.67 -0.52,-1.49 a 1.41,1.41 0 0 1 0.63,-1.38 6.93,6.93 0 0 1 2.69,-0.33 5.22,5.22 0 0 1 2.21,0.29 c 0.31,0.19 0.5,0.65 0.56,1.39 a 1.8,1.8 0 0 0 0,0.27 h 2.82 v -0.5 a 2.91,2.91 0 0 0 -1.19,-2.74 10.2,10.2 0 0 0 -4.63,-0.71 c -2.42,0 -4,0.26 -4.84,0.77 -0.84,0.51 -1.21,1.53 -1.21,3.06 0,1.53 0.33,2.48 1,2.94 0.67,0.46 2.21,0.74 4.62,0.86 l 1.6,0.09 a 3.42,3.42 0 0 1 1.75,0.38 1.51,1.51 0 0 1 0.41,1.26 c 0,0.86 -0.18,1.41 -0.53,1.65 a 5.51,5.51 0 0 1 -2.48,0.35 8.82,8.82 0 0 1 -3,-0.3 c -0.37,-0.21 -0.55,-0.77 -0.55,-1.69 v -0.28 h -2.85 v 0.48 c 0,1.53 0.39,2.54 1.17,3 0.78,0.46 2.38,0.75 4.77,0.75 2.66,0 4.38,-0.25 5.17,-0.76 0.79,-0.51 1.17,-1.64 1.17,-3.38 0.02,-1.38 -0.32,-2.31 -0.98,-2.76 z"
       id="path14" />
    <polygon
       points="16.85,80.64 9.44,80.64 9.44,81.69 12.58,81.69 12.58,90.14 13.71,90.14 13.71,81.69 16.85,81.69 "
       id="polygon16" />
    <path
       d="m 25,84.89 v 0 c 0,-0.35 0,-0.7 0,-1 h -1 c 0,0.41 0.05,0.91 0.05,1.49 v 4.79 h 1.05 v -3.09 c 0,-1.44 0.56,-2.34 1.83,-2.34 a 2.18,2.18 0 0 1 0.57,0.08 l 0.06,-1 A 1.08,1.08 0 0 0 27.13,83.75 2.27,2.27 0 0 0 25,84.89 Z"
       id="path18" />
    <path
       d="m 41.56,87 c 0,-2.08 -1.21,-3.28 -3,-3.28 a 3.3,3.3 0 0 0 0,6.6 3.22,3.22 0 0 0 2.77,-1.32 l -0.79,-0.62 a 2.34,2.34 0 0 1 -2,1 2.09,2.09 0 0 1 -2,-2 h 5.07 z m -5.07,-0.55 a 1.94,1.94 0 0 1 2,-1.77 1.74,1.74 0 0 1 1.89,1.77 z"
       id="path20" />
    <path
       d="m 54,86.23 c -1.54,0 -4,0.12 -4,2.2 0,1.22 1.06,1.87 2.33,1.87 a 2.4,2.4 0 0 0 2.07,-1.1 v 0 a 4.35,4.35 0 0 0 0.07,0.94 h 1 a 6.4,6.4 0 0 1 -0.1,-1.09 v -2.7 c 0,-1.77 -0.78,-2.65 -2.63,-2.65 a 3.51,3.51 0 0 0 -2.49,1 l 0.66,0.69 a 2.75,2.75 0 0 1 1.86,-0.69 c 1,0 1.56,0.47 1.56,1.39 v 0.18 z m 0.41,1.29 a 1.79,1.79 0 0 1 -1.85,1.89 c -0.8,0 -1.39,-0.29 -1.39,-1.08 0,-0.79 0.86,-1.21 2.19,-1.21 h 1 z"
       id="path22" />
    <path
       d="m 68.89,88.33 c 0,-1.27 -0.94,-1.67 -2,-1.88 -0.83,-0.16 -1.59,-0.39 -1.59,-0.91 0,-0.52 0.66,-0.88 1.24,-0.88 a 1.51,1.51 0 0 1 1.33,0.75 l 0.87,-0.57 A 2.27,2.27 0 0 0 66.61,83.7 c -1.17,0 -2.35,0.63 -2.35,1.85 0,1.22 1,1.55 2.21,1.82 0.67,0.15 1.34,0.32 1.34,1 0,0.68 -0.72,1 -1.38,1 a 1.94,1.94 0 0 1 -1.61,-0.84 l -0.83,0.64 a 2.64,2.64 0 0 0 2.44,1.17 c 1.2,-0.04 2.46,-0.59 2.46,-2.01 z"
       id="path24" />
    <path
       d="M 83.07,83.86 H 82 v 3.06 c 0,1.43 -0.59,2.41 -1.94,2.41 -1,0 -1.44,-0.66 -1.44,-1.7 v -3.77 h -1 v 3.87 c 0,1.52 0.74,2.57 2.38,2.57 a 2.28,2.28 0 0 0 2.1,-1.2 v 0 c 0,0.35 0,0.7 0,1 h 1 c 0,-0.42 -0.05,-0.92 -0.05,-1.49 z"
       id="path26" />
    <path
       d="m 93.35,90.14 v -3.06 c 0,-1.44 0.56,-2.34 1.84,-2.34 a 2.16,2.16 0 0 1 0.56,0.08 l 0.07,-1 a 1.14,1.14 0 0 0 -0.43,-0.07 2.29,2.29 0 0 0 -2.1,1.19 v 0 c 0,-0.35 0,-0.7 0,-1 h -1 c 0,0.41 0,0.91 0,1.49 v 4.79 z"
       id="path28" />
    <path
       d="m 104.42,92.39 a 2,2 0 0 1 -0.74,-0.11 l -0.13,0.91 a 2.15,2.15 0 0 0 0.93,0.16 c 1.26,0 1.68,-0.72 2.1,-1.78 l 3,-7.71 h -1.14 l -1.87,4.92 v 0 l -2,-4.92 h -1.22 l 2.6,6.32 -0.43,1.18 c -0.16,0.64 -0.42,1.03 -1.1,1.03 z"
       id="path30" />
    <polygon
       points="0,0 0,15.31 19.44,15.31 19.44,66.83 36.87,66.83 36.87,15.31 56.3,15.31 56.3,0 "
       id="polygon32"
       transform="scale(1.0901556,1)" />
    <path
       d="m 104.27,47.81 -1.38,1.68 a 8.17,8.17 0 0 1 -6,2.64 H 87.7 a 8.2,8.2 0 0 1 -8.2,-8.2 V 23.65 a 8.2,8.2 0 0 1 8.2,-8.2 h 9.17 a 8.2,8.2 0 0 1 8.2,8.2 v 17.57 l 16.22,13 A 28.49,28.49 0 0 0 122.9,44 V 23.4 C 122.9,17.92 122,11.65 117.42,7.3 112.84,2.95 106.48,0 92.17,0 77.86,0 71.5,3 66.93,7.3 62.36,11.6 61.44,17.92 61.44,23.4 V 44 c 0,5.48 0.91,11.75 5.49,16.1 4.58,4.35 10.94,7.3 25.24,7.3 a 56,56 0 0 0 15.2,-1.7 l 11.3,9 7.61,-9.27 z"
       id="path34" />
  </g>
</svg>
