<svg xmlns="http://www.w3.org/2000/svg" viewBox="0 0 30.53 20"><defs><style>.cls-1{fill:#41479b;}.cls-2{fill:#ffe15a;}</style></defs><title>Asset 1</title><g id="Layer_2" data-name="Layer 2"><g id="Capa_1" data-name="Capa 1"><path class="cls-1" d="M30,20H.53A.53.53,0,0,1,0,19.47V.53A.53.53,0,0,1,.53,0H30a.53.53,0,0,1,.53.53V19.47A.53.53,0,0,1,30,20Z"/><path class="cls-2" d="M15.48,2.29l.21.63h.67a.09.09,0,0,1,.05.16l-.54.4.2.63a.09.09,0,0,1-.14.1l-.54-.39-.54.39a.09.09,0,0,1-.14-.1l.2-.63-.53-.4a.09.09,0,0,1,0-.16h.67l.21-.63A.09.09,0,0,1,15.48,2.29Z"/><path class="cls-2" d="M15.48,15.88l.21.63h.67a.1.1,0,0,1,.05.17l-.54.39.2.64a.09.09,0,0,1-.14.1l-.54-.39-.54.39a.09.09,0,0,1-.14-.1l.2-.64-.53-.39a.09.09,0,0,1,0-.17h.67l.21-.63A.09.09,0,0,1,15.48,15.88Z"/><path class="cls-2" d="M22.27,9.08l.21.64h.67a.09.09,0,0,1,.05.16l-.54.4.21.64a.09.09,0,0,1-.14.1l-.55-.39-.54.39a.09.09,0,0,1-.14-.1l.21-.64-.54-.4a.09.09,0,0,1,0-.16h.67l.21-.64A.09.09,0,0,1,22.27,9.08Z"/><path class="cls-2" d="M8.68,9.08l.22.64h.66a.09.09,0,0,1,.06.16l-.54.4.2.64a.09.09,0,0,1-.14.1l-.54-.39L8.06,11a.09.09,0,0,1-.14-.1l.2-.64-.54-.4a.09.09,0,0,1,.06-.16H8.3l.21-.64A.09.09,0,0,1,8.68,9.08Z"/><path class="cls-2" d="M9.7,5.54l.22.63h.66a.09.09,0,0,1,.05.17l-.53.39.2.64a.09.09,0,0,1-.14.1l-.54-.39-.54.39a.09.09,0,0,1-.14-.1l.2-.64L8.6,6.34a.1.1,0,0,1,.06-.17h.66l.21-.63A.09.09,0,0,1,9.7,5.54Z"/><path class="cls-2" d="M21.47,12.33l.21.63h.67a.09.09,0,0,1,0,.16l-.54.39.2.64a.09.09,0,0,1-.13.1l-.55-.39-.54.39a.09.09,0,0,1-.14-.1l.2-.64-.53-.39a.09.09,0,0,1,.05-.16h.67l.21-.63A.09.09,0,0,1,21.47,12.33Z"/><path class="cls-2" d="M19,3.05l.21.63h.67a.09.09,0,0,1,.05.16l-.53.4.2.63a.09.09,0,0,1-.14.1l-.54-.39L18.36,5a.09.09,0,0,1-.14-.1l.2-.63-.54-.4a.09.09,0,0,1,.05-.16h.67l.21-.63A.09.09,0,0,1,19,3.05Z"/><path class="cls-2" d="M12.19,14.81l.21.64h.67a.09.09,0,0,1,0,.16l-.54.4.21.64a.09.09,0,0,1-.14.1l-.54-.39-.55.39a.09.09,0,0,1-.14-.1l.21-.64-.54-.4a.09.09,0,0,1,.05-.16h.67l.21-.64A.09.09,0,0,1,12.19,14.81Z"/><path class="cls-2" d="M21.3,5.54l-.21.63h-.67a.09.09,0,0,0-.05.17l.53.39-.2.64a.09.09,0,0,0,.14.1l.54-.39.55.39a.09.09,0,0,0,.13-.1l-.2-.64.54-.39a.1.1,0,0,0,0-.17h-.67l-.21-.63A.09.09,0,0,0,21.3,5.54Z"/><path class="cls-2" d="M9.53,12.33,9.32,13H8.66a.09.09,0,0,0-.06.16l.54.39-.2.64a.09.09,0,0,0,.14.1l.54-.39.54.39a.09.09,0,0,0,.14-.1l-.2-.64.53-.39a.09.09,0,0,0-.05-.16H9.92l-.22-.63A.09.09,0,0,0,9.53,12.33Z"/><path class="cls-2" d="M12,3.05l-.21.63h-.67a.09.09,0,0,0-.05.16l.54.4-.21.63a.09.09,0,0,0,.14.1l.55-.39.54.39a.09.09,0,0,0,.14-.1l-.21-.63.54-.4a.09.09,0,0,0,0-.16H12.4l-.21-.63A.09.09,0,0,0,12,3.05Z"/><path class="cls-2" d="M18.81,14.81l-.21.64h-.67a.09.09,0,0,0-.05.16l.54.4-.2.64a.09.09,0,0,0,.14.1l.54-.39.54.39a.09.09,0,0,0,.14-.1l-.2-.64.53-.4a.09.09,0,0,0-.05-.16h-.67L19,14.81A.09.09,0,0,0,18.81,14.81Z"/></g></g></svg>