<svg xmlns="http://www.w3.org/2000/svg" viewBox="0 0 30.53 20"><defs><style>.cls-1{fill:#41479b;}.cls-2{fill:#f5f5f5;}.cls-3{fill:#ff4b55;}</style></defs><title>Asset 5</title><g id="Layer_2" data-name="Layer 2"><g id="Capa_1" data-name="Capa 1"><path class="cls-1" d="M30,20H.53A.53.53,0,0,1,0,19.47V.53A.53.53,0,0,1,.53,0H30a.53.53,0,0,1,.53.53V19.47A.53.53,0,0,1,30,20Z"/><path class="cls-2" d="M14.74,0h-.92L9,3.19V0H6.32V3.19L1.44,0H.53A.53.53,0,0,0,0,.53V.94L4.18,3.68H0V6.32H4.18L0,9.06v.41A.53.53,0,0,0,.53,10h.91L6.32,6.81V10H9V6.81L13.82,10h.92a.52.52,0,0,0,.52-.53V9.06L11.08,6.32h4.18V3.68H11.08L15.26.94V.53A.52.52,0,0,0,14.74,0Z"/><polygon class="cls-3" points="15.26 4.21 8.42 4.21 8.42 0 6.84 0 6.84 4.21 0 4.21 0 5.79 6.84 5.79 6.84 10 8.42 10 8.42 5.79 15.26 5.79 15.26 4.21"/><path class="cls-3" d="M5.79,3.68.25.09A.51.51,0,0,0,0,.53v0L4.82,3.68Z"/><path class="cls-3" d="M9.91,3.68,15.18.26A.52.52,0,0,0,14.74,0h-.12L9,3.68Z"/><path class="cls-3" d="M5.33,6.32.08,9.73A.51.51,0,0,0,.53,10h.1L6.3,6.32Z"/><path class="cls-3" d="M15.25,9.52l-4.92-3.2h-1L15,10A.52.52,0,0,0,15.25,9.52Z"/><path class="cls-2" d="M7.79,12.87l.4,1.31,1.27-.51a.12.12,0,0,1,.14.18L8.82,15l1.19.68a.12.12,0,0,1,0,.22L8.6,16l.21,1.36a.12.12,0,0,1-.21.1l-.92-1-.93,1a.12.12,0,0,1-.2-.1L6.76,16l-1.37-.09a.12.12,0,0,1,0-.22L6.53,15l-.78-1.13a.12.12,0,0,1,.14-.18l1.28.51.39-1.31A.12.12,0,0,1,7.79,12.87Z"/><path class="cls-2" d="M23.45,3.54l.19.65.62-.25c.06,0,.11,0,.07.08L24,4.58l.58.33s0,.1,0,.1l-.67,0,.1.66a.05.05,0,0,1-.09,0l-.46-.49-.45.49a.06.06,0,0,1-.1,0l.1-.66-.66,0a.05.05,0,0,1,0-.1l.58-.33L22.45,4s0-.1.07-.08l.62.25.2-.65S23.43,3.49,23.45,3.54Z"/><path class="cls-2" d="M19.12,8.46l.19.64.63-.24a.05.05,0,0,1,.07.08l-.38.55.58.33a.06.06,0,0,1,0,.11l-.67.05.11.66a.06.06,0,0,1-.1,0l-.45-.49-.46.49a.06.06,0,0,1-.1,0l.11-.66L18,9.93a.06.06,0,0,1,0-.11l.59-.33-.38-.55s0-.11.06-.08l.63.24L19,8.46A.06.06,0,0,1,19.12,8.46Z"/><path class="cls-2" d="M27.54,6.36l.2.64.62-.25a.06.06,0,0,1,.07.09l-.38.55.58.33a.06.06,0,0,1,0,.11l-.66,0,.1.66a.06.06,0,0,1-.1.05l-.45-.49L27,8.58s-.1,0-.1-.05L27,7.87l-.67,0a.06.06,0,0,1,0-.11l.59-.33-.38-.55a.06.06,0,0,1,.07-.09l.62.25.19-.64A.06.06,0,0,1,27.54,6.36Z"/><path class="cls-2" d="M23.45,14.78l.19.64.62-.25a.06.06,0,0,1,.07.09l-.38.55.58.33a.06.06,0,0,1,0,.11l-.67,0,.1.67c0,.05-.06.09-.09,0l-.46-.49-.45.49a.06.06,0,0,1-.1,0l.1-.67-.66,0a.06.06,0,0,1,0-.11l.58-.33-.38-.55a.06.06,0,0,1,.07-.09l.62.25.2-.64A.06.06,0,0,1,23.45,14.78Z"/><path class="cls-2" d="M25,9.61l-.16.47H24.3c-.06,0-.09.09,0,.12l.4.3-.15.47a.06.06,0,0,0,.1.07l.4-.29.4.29a.06.06,0,0,0,.1-.07l-.14-.47.39-.3a.07.07,0,0,0,0-.12h-.49l-.15-.47A.07.07,0,0,0,25,9.61Z"/></g></g></svg>