<svg xmlns="http://www.w3.org/2000/svg" viewBox="0 0 30.53 20"><defs><style>.cls-1{fill:#ff4b55;}.cls-2{fill:#f5f5f5;}</style></defs><title>Asset 6</title><g id="Layer_2" data-name="Layer 2"><g id="Capa_1" data-name="Capa 1"><path class="cls-1" d="M30,20H.53A.53.53,0,0,1,0,19.47V.53A.53.53,0,0,1,.53,0H30a.53.53,0,0,1,.53.53V19.47A.53.53,0,0,1,30,20Z"/><path class="cls-2" d="M21.05,7.89H17.37V4.21a.53.53,0,0,0-.53-.53H13.68a.52.52,0,0,0-.52.53V7.89H9.47A.52.52,0,0,0,9,8.42v3.16a.52.52,0,0,0,.52.53h3.69v3.68a.52.52,0,0,0,.52.53h3.16a.53.53,0,0,0,.53-.53V12.11h3.68a.53.53,0,0,0,.53-.53V8.42A.53.53,0,0,0,21.05,7.89Z"/></g></g></svg>