<svg xmlns="http://www.w3.org/2000/svg" viewBox="0 0 30.53 20"><defs><style>.cls-1{fill:#41479b;}.cls-2{fill:#f5f5f5;}.cls-3{fill:#ff4b55;}</style></defs><title>Asset 2</title><g id="Layer_2" data-name="Layer 2"><g id="Capa_1" data-name="Capa 1"><path class="cls-1" d="M30,20H.53A.53.53,0,0,1,0,19.47V.53A.53.53,0,0,1,.53,0H30a.53.53,0,0,1,.53.53V19.47A.53.53,0,0,1,30,20Z"/><path class="cls-2" d="M30.53.53A.53.53,0,0,0,30,0H27.65L17.89,6.39V0H12.63V6.39L2.88,0H.53A.53.53,0,0,0,0,.53V1.89L8.37,7.37H0v5.26H8.37L0,18.11v1.36A.53.53,0,0,0,.53,20H2.88l9.75-6.39V20h5.26V13.61L27.65,20H30a.53.53,0,0,0,.53-.53V18.11l-8.37-5.48h8.37V7.37H22.16l8.37-5.48Z"/><polygon class="cls-3" points="30.53 8.42 16.84 8.42 16.84 0 13.68 0 13.68 8.42 0 8.42 0 11.58 13.68 11.58 13.68 20 16.84 20 16.84 11.58 30.53 11.58 30.53 8.42"/><path class="cls-3" d="M10.67,12.63,0,19.55A.53.53,0,0,0,.53,20h.72L12.6,12.63Z"/><path class="cls-3" d="M20.65,12.63H18.72L30.05,20a.52.52,0,0,0,.48-.52V19Z"/><path class="cls-3" d="M0,1.11,9.65,7.37h1.93L.31.05A.52.52,0,0,0,0,.53Z"/><path class="cls-3" d="M19.83,7.37,30.51.44A.52.52,0,0,0,30,0h-.75L17.89,7.37Z"/></g></g></svg>