<svg xmlns="http://www.w3.org/2000/svg" viewBox="0 0 30 20"><defs><style>.cls-1{fill:#f0f0f0;}.cls-2{fill:#d80027;}.cls-3{fill:#2e52b2;}</style></defs><title>Asset 4</title><g id="Layer_2" data-name="Layer 2"><g id="Capa_1" data-name="Capa 1"><rect class="cls-1" width="30" height="20"/><rect class="cls-2" y="2.5" width="30" height="2.5"/><rect class="cls-2" y="7.5" width="30" height="2.5"/><rect class="cls-2" y="12.5" width="30" height="2.5"/><rect class="cls-2" y="17.5" width="30" height="2.5"/><rect class="cls-3" width="15" height="10.77"/><polygon class="cls-1" points="5.85 4.41 5.61 5.16 4.83 5.16 5.46 5.61 5.22 6.36 5.85 5.9 6.48 6.36 6.24 5.61 6.87 5.16 6.09 5.16 5.85 4.41"/><polygon class="cls-1" points="6.09 7.84 5.85 7.09 5.61 7.84 4.83 7.84 5.46 8.3 5.22 9.04 5.85 8.58 6.48 9.04 6.24 8.3 6.87 7.84 6.09 7.84"/><polygon class="cls-1" points="2.79 7.84 2.55 7.09 2.31 7.84 1.52 7.84 2.16 8.3 1.91 9.04 2.55 8.58 3.18 9.04 2.94 8.3 3.57 7.84 2.79 7.84"/><polygon class="cls-1" points="2.55 4.41 2.31 5.16 1.52 5.16 2.16 5.61 1.91 6.36 2.55 5.9 3.18 6.36 2.94 5.61 3.57 5.16 2.79 5.16 2.55 4.41"/><polygon class="cls-1" points="5.85 1.73 5.61 2.47 4.83 2.47 5.46 2.93 5.22 3.67 5.85 3.22 6.48 3.67 6.24 2.93 6.87 2.47 6.09 2.47 5.85 1.73"/><polygon class="cls-1" points="2.55 1.73 2.31 2.47 1.52 2.47 2.16 2.93 1.91 3.67 2.55 3.22 3.18 3.67 2.94 2.93 3.57 2.47 2.79 2.47 2.55 1.73"/><polygon class="cls-1" points="9.15 4.41 8.91 5.16 8.13 5.16 8.76 5.61 8.52 6.36 9.15 5.9 9.78 6.36 9.54 5.61 10.17 5.16 9.39 5.16 9.15 4.41"/><polygon class="cls-1" points="9.39 7.84 9.15 7.09 8.91 7.84 8.13 7.84 8.76 8.3 8.52 9.04 9.15 8.58 9.78 9.04 9.54 8.3 10.17 7.84 9.39 7.84"/><polygon class="cls-1" points="12.7 7.84 12.45 7.09 12.21 7.84 11.43 7.84 12.06 8.3 11.82 9.04 12.45 8.58 13.09 9.04 12.84 8.3 13.48 7.84 12.7 7.84"/><polygon class="cls-1" points="12.45 4.41 12.21 5.16 11.43 5.16 12.06 5.61 11.82 6.36 12.45 5.9 13.09 6.36 12.84 5.61 13.48 5.16 12.7 5.16 12.45 4.41"/><polygon class="cls-1" points="9.15 1.73 8.91 2.47 8.13 2.47 8.76 2.93 8.52 3.67 9.15 3.22 9.78 3.67 9.54 2.93 10.17 2.47 9.39 2.47 9.15 1.73"/><polygon class="cls-1" points="12.45 1.73 12.21 2.47 11.43 2.47 12.06 2.93 11.82 3.67 12.45 3.22 13.09 3.67 12.84 2.93 13.48 2.47 12.7 2.47 12.45 1.73"/></g></g></svg>