<?xml version="1.0" encoding="UTF-8" standalone="no"?>
<svg
   xmlns:dc="http://purl.org/dc/elements/1.1/"
   xmlns:cc="http://creativecommons.org/ns#"
   xmlns:rdf="http://www.w3.org/1999/02/22-rdf-syntax-ns#"
   xmlns:svg="http://www.w3.org/2000/svg"
   xmlns="http://www.w3.org/2000/svg"
   xmlns:sodipodi="http://sodipodi.sourceforge.net/DTD/sodipodi-0.dtd"
   xmlns:inkscape="http://www.inkscape.org/namespaces/inkscape"
   viewBox="0 0 230 47.499999"
   version="1.1"
   id="svg1096"
   sodipodi:docname="logo_with_tagline.svg"
   inkscape:version="1.0.1 (3bc2e813f5, 2020-09-07)"
   width="230"
   height="47.5">
  <metadata
     id="metadata1100">
    <rdf:RDF>
      <cc:Work
         rdf:about="">
        <dc:format>image/svg+xml</dc:format>
        <dc:type
           rdf:resource="http://purl.org/dc/dcmitype/StillImage" />
        <dc:title>Asset 9</dc:title>
      </cc:Work>
    </rdf:RDF>
  </metadata>
  <sodipodi:namedview
     pagecolor="#ffffff"
     bordercolor="#666666"
     borderopacity="1"
     objecttolerance="10"
     gridtolerance="10"
     guidetolerance="10"
     inkscape:pageopacity="0"
     inkscape:pageshadow="2"
     inkscape:window-width="1440"
     inkscape:window-height="837"
     id="namedview1098"
     showgrid="false"
     inkscape:zoom="2.3952524"
     inkscape:cx="229.29031"
     inkscape:cy="50.42039"
     inkscape:window-x="-8"
     inkscape:window-y="-8"
     inkscape:window-maximized="1"
     inkscape:current-layer="svg1096"
     inkscape:showpageshadow="false"
     showborder="false" />
  <defs
     id="defs1058">
    <style
       id="style1056">.cls-1{fill:#717a90;}</style>
  </defs>
  <title
     id="title1060">Asset 9</title>
  <rect
     style="fill:#4d4d4d;fill-opacity:0"
     id="rect1293"
     width="80"
     height="80"
     x="0.1327707"
     y="6.3354495e-09" />
  <g
     id="g2039"
     transform="translate(0.05218657,-6.5740522)">
    <polygon
       class="cls-1"
       points="35.67,0 0,0 0,9.7 12.31,9.7 12.31,42.33 23.36,42.33 23.36,9.7 35.67,9.7 "
       id="polygon1090"
       style="fill:#4d4d4d"
       transform="matrix(1.089375,0,0,1,0,6.6360157)"
       inkscape:export-xdpi="96"
       inkscape:export-ydpi="96" />
    <path
       class="cls-1"
       d="m 66.06,36.909016 -0.88,1.06 a 5.16,5.16 0 0 1 -3.81,1.65 h -5.81 a 5.19,5.19 0 0 1 -5.2,-5.19 v -12.81 a 5.19,5.19 0 0 1 5.2,-5.19 h 5.81 a 5.19,5.19 0 0 1 5.19,5.19 v 11.11 l 10.28,8.22 a 18.06,18.06 0 0 0 1,-6.49 v -13 c 0,-3.47 -0.57,-7.44 -3.47,-10.2 -2.9,-2.7600003 -6.92,-4.6400003 -15.98,-4.6400003 -9.06,0 -13.1,1.87 -16,4.6200003 -2.9,2.75 -3.48,6.73 -3.48,10.2 v 13 c 0,3.47 0.58,7.45 3.48,10.2 2.9,2.75 6.93,4.63 16,4.63 a 35.62,35.62 0 0 0 9.61,-1.06 l 7.16,5.72 4.84,-5.88 z"
       id="path1092"
       style="fill:#4d4d4d"
       inkscape:export-xdpi="96"
       inkscape:export-ydpi="96" />
  </g>
  <text
     xml:space="preserve"
     style="font-style:italic;font-variant:normal;font-weight:normal;font-stretch:normal;font-size:15.8915px;line-height:1.25;font-family:sans-serif;-inkscape-font-specification:'sans-serif, Italic';font-variant-ligatures:normal;font-variant-caps:normal;font-variant-numeric:normal;font-variant-east-asian:normal;fill:#4d4d4d;fill-opacity:1;stroke:none;stroke-width:0.39729"
     x="82.551376"
     y="41.252953"
     id="text2043"><tspan
       sodipodi:role="line"
       id="tspan2041"
       x="82.551376"
       y="41.252953"
       style="font-style:italic;font-variant:normal;font-weight:normal;font-stretch:normal;font-size:15.8915px;font-family:sans-serif;-inkscape-font-specification:'sans-serif, Italic';font-variant-ligatures:normal;font-variant-caps:normal;font-variant-numeric:normal;font-variant-east-asian:normal;fill:#4d4d4d;stroke-width:0.39729">Your middle office.</tspan></text>
</svg>
