<svg xmlns="http://www.w3.org/2000/svg" viewBox="0 0 80 69.93"><defs><style>.cls-1{fill:#717a90;}</style></defs><title>Asset 9</title><g id="Layer_2" data-name="Layer 2"><g id="Capa_1" data-name="Capa 1"><path class="cls-1" d="M16.83,68.75l-.76,1-.92-.55a5.42,5.42,0,0,1-3.42.78c-1.84,0-3-.23-3.55-.71S7.4,67.66,7.4,66c0-2,.25-3.2.74-3.72s1.69-.78,3.56-.78,3,.25,3.54.73.77,1.62.77,3.39a10.83,10.83,0,0,1-.2,2.56Zm-5.5-1.85.77-1,2,1.16a5.71,5.71,0,0,0,.06-.6V64.64c0-.78-.15-1.27-.44-1.49a3.82,3.82,0,0,0-2-.33c-1.23,0-2,.14-2.15.41a6.8,6.8,0,0,0-.31,2.83c0,1.22.12,1.94.38,2.17a4.38,4.38,0,0,0,2.36.35,2.86,2.86,0,0,0,1.58-.37Z"/><path class="cls-1" d="M25.48,61.54h1.83v5.54a2.72,2.72,0,0,1-.77,2.29,5.93,5.93,0,0,1-3.17.56,6.61,6.61,0,0,1-3.3-.53c-.53-.35-.79-1.09-.79-2.23V61.54h1.83v5.63c0,.61.13,1,.39,1.16a3.88,3.88,0,0,0,1.79.25,4,4,0,0,0,1.82-.25c.25-.16.37-.57.37-1.22Z"/><path class="cls-1" d="M36.57,68.27H32.41l-.6,1.59H29.87l3.21-8.32h2.75l3.26,8.32h-1.9Zm-.42-1.17-1.67-4.33L32.84,67.1Z"/><path class="cls-1" d="M50.61,61.54v8.32h-3.1L44.76,65.3c-.14-.23-.35-.63-.65-1.2l-.31-.59-.3-.6h-.07l0,.55,0,.54v5.86H41.66V61.54h3.1l2.51,4.22c.22.37.48.83.77,1.36l.37.68.37.68h.06l0-.54,0-.53,0-1.08V61.54Z"/><path class="cls-1" d="M57.89,63v6.9H56.06V63H53.28V61.54h7.5V63Z"/><path class="cls-1" d="M70.6,64H68.81c0-.08,0-.14,0-.17,0-.47-.16-.76-.36-.88a3.27,3.27,0,0,0-1.4-.18,4.39,4.39,0,0,0-1.7.21q-.39.19-.39.87c0,.52.1.84.32.94a8.12,8.12,0,0,0,2.15.24,6.46,6.46,0,0,1,2.79.53,2,2,0,0,1,.63,1.78c0,1.1-.25,1.82-.74,2.14a7.08,7.08,0,0,1-3.27.48,6.37,6.37,0,0,1-3-.47,2.15,2.15,0,0,1-.74-1.93v-.3h1.78v.18c0,.58.12.93.35,1.06a5.39,5.39,0,0,0,1.93.2,3.38,3.38,0,0,0,1.57-.23c.23-.15.34-.5.34-1a1,1,0,0,0-.26-.8,2.26,2.26,0,0,0-1.11-.24l-1-.06a6.67,6.67,0,0,1-2.93-.55c-.42-.28-.63-.9-.63-1.85A2.11,2.11,0,0,1,63.84,62a6.37,6.37,0,0,1,3.07-.49,6.4,6.4,0,0,1,2.93.45,1.84,1.84,0,0,1,.76,1.73Z"/><path class="cls-1" d="M10.67,51.75h-2V57.1H8V51.75H6v-.66h4.69Z"/><path class="cls-1" d="M15.2,54.07c0-.37,0-.68,0-1h.63c0,.22,0,.44,0,.66h0A1.45,1.45,0,0,1,17.16,53a.88.88,0,0,1,.27,0l0,.68a1.08,1.08,0,0,0-.36-.05c-.81,0-1.16.56-1.16,1.47V57.1H15.2Z"/><path class="cls-1" d="M26.18,56.38a2,2,0,0,1-1.76.82,2,2,0,0,1-2-2.09,2,2,0,0,1,2-2.09,1.86,1.86,0,0,1,1.89,2.08v.22H23.12a1.32,1.32,0,0,0,1.3,1.27,1.46,1.46,0,0,0,1.26-.6Zm-.57-1.62a1.1,1.1,0,0,0-1.19-1.13,1.23,1.23,0,0,0-1.3,1.13Z"/><path class="cls-1" d="M31.9,53.63A2.22,2.22,0,0,1,33.48,53c1.17,0,1.66.56,1.66,1.68v1.71a4.92,4.92,0,0,0,.06.69h-.64a3,3,0,0,1,0-.59h0a1.5,1.5,0,0,1-1.3.69c-.81,0-1.48-.4-1.48-1.18,0-1.32,1.53-1.39,2.5-1.39h.26v-.12c0-.58-.37-.88-1-.88a1.78,1.78,0,0,0-1.18.44Zm1.92,1.56c-.85,0-1.39.23-1.39.76s.38.69.88.69a1.14,1.14,0,0,0,1.17-1.2v-.25Z"/><path class="cls-1" d="M41,56.06a1.24,1.24,0,0,0,1,.53c.42,0,.88-.18.88-.61s-.43-.54-.85-.63c-.76-.17-1.4-.33-1.4-1.15S41.42,53,42.16,53a1.44,1.44,0,0,1,1.35.72l-.55.37a1,1,0,0,0-.84-.48c-.37,0-.78.18-.78.56s.47.47,1,.57c.71.14,1.3.4,1.3,1.19s-.8,1.25-1.59,1.25a1.67,1.67,0,0,1-1.54-.74Z"/><path class="cls-1" d="M52.62,56.16c0,.36,0,.68,0,.94H52c0-.21,0-.43,0-.65h0a1.46,1.46,0,0,1-1.33.75,1.42,1.42,0,0,1-1.51-1.62V53.12h.66v2.39c0,.66.29,1.08.91,1.08.86,0,1.23-.62,1.23-1.53V53.12h.66Z"/><path class="cls-1" d="M58.47,54.07c0-.37,0-.68,0-1h.63c0,.22,0,.44,0,.66h0A1.45,1.45,0,0,1,60.43,53a.88.88,0,0,1,.27,0l0,.68a1.08,1.08,0,0,0-.36-.05c-.81,0-1.16.56-1.16,1.47V57.1h-.67Z"/><path class="cls-1" d="M67.52,58c-.27.67-.53,1.13-1.33,1.13a1.47,1.47,0,0,1-.59-.1l.08-.58a1.33,1.33,0,0,0,.47.07c.43,0,.59-.26.74-.66l.27-.74-1.65-4h.77l1.24,3.12h0l1.18-3.12h.73Z"/><polygon class="cls-1" points="0 9.7 12.31 9.7 12.31 42.33 23.36 42.33 23.36 9.7 35.67 9.7 35.67 0 0 0 0 9.7"/><path class="cls-1" d="M66.06,30.29l-.88,1.06A5.16,5.16,0,0,1,61.37,33H55.56a5.19,5.19,0,0,1-5.2-5.19V15a5.19,5.19,0,0,1,5.2-5.19h5.81A5.19,5.19,0,0,1,66.56,15V26.11l10.28,8.22a18.06,18.06,0,0,0,1-6.49v-13c0-3.47-.57-7.44-3.47-10.2S67.45,0,58.39,0s-13.1,1.87-16,4.62-3.48,6.73-3.48,10.2v13c0,3.47.58,7.45,3.48,10.2s6.93,4.63,16,4.63A35.62,35.62,0,0,0,68,41.59l7.16,5.72L80,41.43Z"/></g></g></svg>