<?xml version="1.0" encoding="UTF-8" standalone="no"?>
<!-- Created with Inkscape (http://www.inkscape.org/) -->

<svg
   xmlns:dc="http://purl.org/dc/elements/1.1/"
   xmlns:cc="http://creativecommons.org/ns#"
   xmlns:rdf="http://www.w3.org/1999/02/22-rdf-syntax-ns#"
   xmlns:svg="http://www.w3.org/2000/svg"
   xmlns="http://www.w3.org/2000/svg"
   xmlns:sodipodi="http://sodipodi.sourceforge.net/DTD/sodipodi-0.dtd"
   xmlns:inkscape="http://www.inkscape.org/namespaces/inkscape"
   width="42.151909mm"
   height="44.151909mm"
   viewBox="0 0 42.151909 44.151909"
   version="1.1"
   id="svg6473"
   inkscape:export-filename="C:\Users\shahram\Desktop\iconLarge.png"
   inkscape:export-xdpi="712.23737"
   inkscape:export-ydpi="712.23737"
   inkscape:version="0.92.2 (5c3e80d, 2017-08-06)"
   sodipodi:docname="iconWhite.svg">
  <defs
     id="defs6467">
    <clipPath
       clipPathUnits="userSpaceOnUse"
       id="clipPath6423">
      <rect
         style="opacity:0.44899998;fill:#ff0000;fill-opacity:1;stroke:#0c00e7;stroke-width:0.26499999;stroke-miterlimit:4;stroke-dasharray:none;stroke-opacity:0.84705882"
         id="rect6425"
         width="44.529377"
         height="29.289373"
         x="13.420135"
         y="70.670921" />
    </clipPath>
    <clipPath
       clipPathUnits="userSpaceOnUse"
       id="clipPath7761">
      <rect
         style="opacity:0.44899998;fill:#ff0000;fill-opacity:0.95767194;stroke:#0c00e7;stroke-width:0.26499999;stroke-miterlimit:4;stroke-dasharray:none;stroke-opacity:0.84705882"
         id="rect7763"
         width="44.529373"
         height="29.289373"
         x="51.062695"
         y="39.694599" />
    </clipPath>
    <clipPath
       clipPathUnits="userSpaceOnUse"
       id="clipPath7767">
      <rect
         style="opacity:0.44899998;fill:#ff0000;fill-opacity:0.95767194;stroke:#0c00e7;stroke-width:0.26499999;stroke-miterlimit:4;stroke-dasharray:none;stroke-opacity:0.84705882"
         id="rect7769"
         width="41.962914"
         height="29.315834"
         x="51.062695"
         y="39.694599" />
    </clipPath>
    <clipPath
       clipPathUnits="userSpaceOnUse"
       id="clipPath7771">
      <rect
         style="opacity:0.44899998;fill:#ff0000;fill-opacity:0.01587303;stroke:#0c00e7;stroke-width:0.26499999;stroke-miterlimit:4;stroke-dasharray:none;stroke-opacity:0.84705882"
         id="rect7773"
         width="80.886909"
         height="71.059525"
         x="30.994045"
         y="15.785706"
         inkscape:export-xdpi="712.23737"
         inkscape:export-ydpi="712.23737"
         clip-path="url(#clipPath7767)"
         transform="translate(-37.642558,30.976322)" />
    </clipPath>
    <clipPath
       clipPathUnits="userSpaceOnUse"
       id="clipPath7777">
      <rect
         style="opacity:0.44899998;fill:#ff0000;fill-opacity:0.95767194;stroke:#0c00e7;stroke-width:0.26499999;stroke-miterlimit:4;stroke-dasharray:none;stroke-opacity:0.84705882"
         id="rect7779"
         width="49.177593"
         height="43.965836"
         x="9.1215248"
         y="63.698338" />
    </clipPath>
    <clipPath
       clipPathUnits="userSpaceOnUse"
       id="clipPath7785">
      <rect
         style="opacity:0.44899998;fill:#ff0000;fill-opacity:0.95767194;stroke:#0c00e7;stroke-width:0.26499999;stroke-miterlimit:4;stroke-dasharray:none;stroke-opacity:0.84705882"
         id="rect7787"
         width="41.962914"
         height="29.315834"
         x="13.420135"
         y="70.670921" />
    </clipPath>
  </defs>
  <sodipodi:namedview
     id="base"
     pagecolor="#ffffff"
     bordercolor="#666666"
     borderopacity="1.0"
     inkscape:pageopacity="0.0"
     inkscape:pageshadow="2"
     inkscape:zoom="4.1049093"
     inkscape:cx="39.583184"
     inkscape:cy="83.436678"
     inkscape:document-units="mm"
     inkscape:current-layer="layer1"
     showgrid="false"
     inkscape:pagecheckerboard="true"
     inkscape:window-width="1600"
     inkscape:window-height="837"
     inkscape:window-x="-8"
     inkscape:window-y="-8"
     inkscape:window-maximized="1" />
  <metadata
     id="metadata6470">
    <rdf:RDF>
      <cc:Work
         rdf:about="">
        <dc:format>image/svg+xml</dc:format>
        <dc:type
           rdf:resource="http://purl.org/dc/dcmitype/StillImage" />
        <dc:title></dc:title>
      </cc:Work>
    </rdf:RDF>
  </metadata>
  <g
     inkscape:label="Layer 1"
     inkscape:groupmode="layer"
     id="layer1"
     transform="translate(-30.861545,-42.825794)">
    <g
       id="g5732"
       transform="translate(17.468434,-28.001287)"
       clip-path="url(#clipPath7785)"
       style="fill:#ffffff;stroke:#ffffff">
      <g
         transform="translate(2.5945868e-6,0.77862665)"
         id="g5693"
         style="fill:#ffffff;stroke:#ffffff">
        <g
           id="g4790"
           transform="translate(2.679939,-1.0666037)"
           clip-path="none"
           style="fill:#ffffff;stroke:#ffffff">
          <g
             id="g4094"
             transform="matrix(0.26458333,0,0,0.26458333,-54.982305,-7.3577673)"
             style="fill:#ffffff;stroke:#ffffff">
            <g
               id="g4054"
               style="fill:#ffffff;stroke:#ffffff">
              <path
                 id="path4048"
                 d="m 303.4,399 v 7.6 h -20.5 v -37.4 c 3.4,11.8 10.2,22.5 20.5,29.8 z"
                 inkscape:connector-curvature="0"
                 style="fill:#ffffff;stroke:#ffffff" />
              <path
                 id="path4050"
                 d="m 374.5,348.4 c 0.3,5.9 -0.8,12 -3,17.6 l 15.2,15.2 c 2.2,-3.8 4,-7.9 5.3,-12.2 1.9,-6.4 2.8,-13.2 2.8,-19.9 0,-0.9 0,-1.8 -0.1,-2.7 C 393,317.9 369,296 340.6,296 v 15.9 c 24.3,0.8 33.1,19.3 33.9,36.5 z"
                 inkscape:connector-curvature="0"
                 style="fill:#ffffff;stroke:#ffffff" />
              <path
                 id="path4052"
                 d="m 397.5,397.2 -12.9,-12.7 c 0,0 0,-0.1 0.1,-0.1 L 369.3,369 h -28.9 l 15,15 c -1.2,0.6 -2.3,1.1 -3.6,1.6 -3.8,1.4 -8.1,2.2 -12.8,2.2 -16.9,0 -27.8,-9.8 -32.7,-22 -1.3,-3.3 -2.2,-6.8 -2.7,-10.2 V 344 c 0.5,-3.6 1.3,-7.2 2.7,-10.6 2.5,-6.4 6.7,-12.2 12.7,-16.1 1.6,-1 3.3,-1.9 5.1,-2.7 4,-1.7 8.7,-2.7 14,-2.8 V 296 h -18.1 -7.6 -64 v 18.7 h 34.5 v 16.2 16.9 c 0,0.9 0,1.7 0,2.6 0,0.7 0,1.3 0,2 0.6,16.7 7.1,33.1 20.5,43.5 0.9,0.7 1.8,1.3 2.7,1.9 8.4,5.6 19.3,9 32.7,9 10.7,0 20.1,-2.1 27.8,-6.2 v 0 c 1.1,-0.6 2.1,-1.2 3.2,-1.9 l 8.2,8.1 h 29 z"
                 inkscape:connector-curvature="0"
                 style="fill:#ffffff;stroke:#ffffff" />
            </g>
            <g
               id="g4058"
               style="fill:#ffffff;stroke:#ffffff">
              <rect
                 id="rect4056"
                 height="110.7"
                 width="3.0999999"
                 y="296"
                 x="416.70001"
                 style="fill:#ffffff;stroke:#ffffff" />
            </g>
            <g
               id="g4092"
               style="fill:#ffffff;stroke:#ffffff">
              <g
                 id="g4076"
                 style="fill:#ffffff;stroke:#ffffff">
                <path
                   id="path4060"
                   d="M 452.6,306.2 H 433.8 V 296 c 17.1,0 31.5,0 48.7,0 v 10.1 h -18.8 v 49 h -11.2 v -48.9 z"
                   inkscape:connector-curvature="0"
                   style="fill:#ffffff;stroke:#ffffff" />
                <path
                   id="path4062"
                   d="M 550.3,355.2 H 537 L 519.7,335.4 H 509 v 19.8 H 497.8 V 296 c 9.4,0 18.8,0.1 28.2,0.1 14,0.1 21.3,9.4 21.3,19.6 0,8.1 -3.7,16.3 -15,18.6 l 17.9,20.2 v 0.7 z M 509,306.4 v 18.9 h 17 c 7.1,0 10.1,-4.7 10.1,-9.5 0,-4.7 -3.1,-9.5 -10.1,-9.5 h -17 z"
                   inkscape:connector-curvature="0"
                   style="fill:#ffffff;stroke:#ffffff" />
                <path
                   id="path4064"
                   d="m 607.4,355.2 h -44.3 c 0,-19.7 0,-39.5 0,-59.2 h 44.3 v 10.8 h -33.2 v 13.6 h 32 v 10.4 h -32 v 13.4 h 33.2 z"
                   inkscape:connector-curvature="0"
                   style="fill:#ffffff;stroke:#ffffff" />
                <path
                   id="path4066"
                   d="m 666.6,344.1 h -31 l -5.1,11.2 H 618.4 L 645,296 h 12.2 l 26.6,59.2 h -12.2 z m -15.5,-35.6 -11,25.2 h 22 z"
                   inkscape:connector-curvature="0"
                   style="fill:#ffffff;stroke:#ffffff" />
                <path
                   id="path4068"
                   d="m 719.7,319.7 c -6.7,-0.8 -12.4,-2.2 -12.4,-7 0,-4.2 3.7,-7.4 11.6,-7.4 6.1,0 11.3,3 13.2,6.2 l 8.4,-4.3 c -1.7,-3.5 -4.3,-6 -7.2,-7.7 -4.3,-2.5 -9.6,-3.3 -14.7,-3.3 -4.8,0 -9.8,1.1 -13.8,3.3 -4.6,2.6 -7.8,6.8 -7.8,12.9 0,12.5 10.5,15.6 21.9,16.9 7.4,0.8 12.9,3 12.9,8.2 0,6.1 -6.2,8.4 -12.9,8.4 -6.8,0 -13.2,-2.7 -15.7,-8.9 l -8.8,4.5 c 4.2,10.2 12.9,13.7 24.3,13.7 12.4,0 23.5,-5.3 23.5,-17.8 0,-13.3 -10.9,-16.3 -22.5,-17.7 z"
                   inkscape:connector-curvature="0"
                   style="fill:#ffffff;stroke:#ffffff" />
                <path
                   id="path4070"
                   d="m 801.5,296 v 32.7 c 0,10.1 -5.2,16.3 -14.5,16.3 -9.2,0 -15.3,-5.7 -15.3,-16.3 V 296 h -11.1 v 32.7 c 0,17.8 12.1,26.5 26.3,26.5 14.9,0 25.6,-9 25.6,-26.5 V 296 Z"
                   inkscape:connector-curvature="0"
                   style="fill:#ffffff;stroke:#ffffff" />
                <path
                   id="path4072"
                   d="m 884.5,355.2 h -13.3 l -17.3,-19.8 h -10.7 v 19.8 H 832 V 296 c 9.4,0 18.8,0.1 28.2,0.1 14,0.1 21.3,9.4 21.3,19.6 0,8.1 -3.7,16.3 -15,18.6 l 17.9,20.2 v 0.7 z m -41.3,-48.8 v 18.9 h 17 c 7.1,0 10.1,-4.7 10.1,-9.5 0,-4.7 -3.1,-9.5 -10.1,-9.5 h -17 z"
                   inkscape:connector-curvature="0"
                   style="fill:#ffffff;stroke:#ffffff" />
                <path
                   id="path4074"
                   d="m 922.4,320.5 15.7,-24.4 h 13.4 v 0.5 L 928,330.8 v 24.4 H 916.8 V 330.8 L 894.1,296.6 V 296 h 13.3 z"
                   inkscape:connector-curvature="0"
                   style="fill:#ffffff;stroke:#ffffff" />
              </g>
              <g
                 id="g4090"
                 style="fill:#ffffff;stroke:#ffffff">
                <path
                   id="path4078"
                   d="m 471.2,387.7 c 0,4.5 -1.5,9.1 -4.3,12.6 l 4.7,4.5 -1.8,1.8 -4.6,-4.4 c -3,2.6 -7.3,4.3 -12.6,4.3 -12.6,0 -18.8,-9 -18.7,-19.2 0.1,-9.8 6.3,-18.6 18.7,-18.6 12.4,0 18.6,8.9 18.6,19 z m -34.6,-0.3 c -0.1,8.8 5.2,16.5 15.9,16.5 10.6,0 15.8,-7.7 15.8,-16.2 0,-8.7 -5.3,-16.3 -15.8,-16.3 -9.4,0 -15.9,6.9 -15.9,16 z"
                   inkscape:connector-curvature="0"
                   style="fill:#ffffff;stroke:#ffffff" />
                <path
                   id="path4080"
                   d="m 509.6,369.7 v 22.5 c 0,15.8 -22.7,15.9 -22.7,0 v -22.5 h -2.8 v 22.5 c 0,9.7 7.1,14.5 14.1,14.5 7.1,0 14.2,-4.8 14.2,-14.5 v -22.5 z"
                   inkscape:connector-curvature="0"
                   style="fill:#ffffff;stroke:#ffffff" />
                <path
                   id="path4082"
                   d="m 557,406.7 -4.1,-9.1 h -22.1 l -4,9.1 h -3.1 l 16.6,-37 h 3.1 l 16.6,37 z M 551.8,395 541.9,372.5 532,395 Z"
                   inkscape:connector-curvature="0"
                   style="fill:#ffffff;stroke:#ffffff" />
                <path
                   id="path4084"
                   d="m 573.5,369.7 24.9,30.6 v -30.6 h 2.8 v 37 h -1.1 l -24.9,-30.5 v 30.5 h -2.9 v -37 z"
                   inkscape:connector-curvature="0"
                   style="fill:#ffffff;stroke:#ffffff" />
                <path
                   id="path4086"
                   d="M 627.3,372.3 H 614 v -2.5 h 29.6 v 2.5 h -13.4 v 34.4 h -2.9 z"
                   inkscape:connector-curvature="0"
                   style="fill:#ffffff;stroke:#ffffff" />
                <path
                   id="path4088"
                   d="m 680.3,376.3 c -2.7,-4.3 -7,-5 -11.2,-5 -4.3,0 -11.2,1.6 -11.2,7.5 0,4.7 5.1,5.8 11.3,7 7.1,1.4 14.5,2.6 14.5,10.6 -0.1,8.3 -8.4,10.4 -14.6,10.4 -5.8,0 -12.3,-2.4 -15.2,-8 l 2.5,-1.3 c 2.3,4.5 8.1,6.7 12.6,6.7 4.5,0 11.8,-1.3 11.8,-7.8 0.1,-5.5 -6.1,-6.8 -12.1,-7.9 -6.8,-1.3 -13.7,-2.7 -13.7,-9.5 -0.2,-7.8 8,-10.2 14,-10.2 5.3,0 9.9,0.8 13.5,6.3 z"
                   inkscape:connector-curvature="0"
                   style="fill:#ffffff;stroke:#ffffff" />
              </g>
            </g>
          </g>
        </g>
        <rect
           style="opacity:0;fill:#ffffff;fill-opacity:1;stroke:#ffffff;stroke-width:0.26499999;stroke-miterlimit:4;stroke-dasharray:none;stroke-opacity:1"
           id="rect5659"
           width="5.2916665"
           height="6.7090774"
           x="22.964031"
           y="72.466309" />
        <rect
           style="opacity:0;fill:#ffffff;fill-opacity:1;stroke:#ffffff;stroke-width:0.26499999;stroke-miterlimit:4;stroke-dasharray:none;stroke-opacity:1"
           id="rect5661"
           width="10.488839"
           height="3.4962797"
           x="18.806293"
           y="71.42688" />
        <rect
           style="opacity:0;fill:#ffffff;fill-opacity:1;stroke:#ffffff;stroke-width:0.26499999;stroke-miterlimit:4;stroke-dasharray:none;stroke-opacity:1"
           id="rect5663"
           width="36.663689"
           height="23.245535"
           x="15.404508"
           y="70.670921" />
      </g>
    </g>
  </g>
</svg>
