<?xml version="1.0" encoding="UTF-8" standalone="no"?>
<!-- Created with Inkscape (http://www.inkscape.org/) -->

<svg
   xmlns:dc="http://purl.org/dc/elements/1.1/"
   xmlns:cc="http://creativecommons.org/ns#"
   xmlns:rdf="http://www.w3.org/1999/02/22-rdf-syntax-ns#"
   xmlns:svg="http://www.w3.org/2000/svg"
   xmlns="http://www.w3.org/2000/svg"
   xmlns:sodipodi="http://sodipodi.sourceforge.net/DTD/sodipodi-0.dtd"
   xmlns:inkscape="http://www.inkscape.org/namespaces/inkscape"
   width="210mm"
   height="297mm"
   viewBox="0 0 210 297"
   version="1.1"
   id="svg4452"
   inkscape:version="0.92.2 (5c3e80d, 2017-08-06)"
   sodipodi:docname="logoWhite.svg">
  <defs
     id="defs4446" />
  <sodipodi:namedview
     id="base"
     pagecolor="#ffffff"
     bordercolor="#666666"
     borderopacity="1.0"
     inkscape:pageopacity="0.0"
     inkscape:pageshadow="2"
     inkscape:zoom="0.7"
     inkscape:cx="74.932075"
     inkscape:cy="702.41424"
     inkscape:document-units="mm"
     inkscape:current-layer="layer1"
     showgrid="false"
     inkscape:pagecheckerboard="true"
     inkscape:window-width="1600"
     inkscape:window-height="837"
     inkscape:window-x="-8"
     inkscape:window-y="-8"
     inkscape:window-maximized="1" />
  <metadata
     id="metadata4449">
    <rdf:RDF>
      <cc:Work
         rdf:about="">
        <dc:format>image/svg+xml</dc:format>
        <dc:type
           rdf:resource="http://purl.org/dc/dcmitype/StillImage" />
        <dc:title></dc:title>
      </cc:Work>
    </rdf:RDF>
  </metadata>
  <g
     inkscape:label="Layer 1"
     inkscape:groupmode="layer"
     id="layer1">
    <g
       transform="matrix(0.26458333,0,0,0.26458333,-56.305221,-194.87931)"
       id="g4144"
       style="fill:#ffffff"
       inkscape:export-xdpi="600"
       inkscape:export-ydpi="600">
      <g
         id="g4104"
         style="fill:#ffffff">
        <path
           inkscape:connector-curvature="0"
           class="st0"
           d="m 303.4,878.2 v 7.6 h -20.5 v -37.4 c 3.4,11.8 10.2,22.4 20.5,29.8 z"
           id="path4098"
           style="fill:#ffffff" />
        <path
           inkscape:connector-curvature="0"
           class="st0"
           d="m 374.5,827.5 c 0.3,5.9 -0.8,12 -3,17.6 l 15.2,15.2 c 2.2,-3.8 4,-7.9 5.3,-12.2 1.9,-6.4 2.8,-13.2 2.8,-19.9 0,-0.9 0,-1.8 -0.1,-2.7 -1.6,-28.3 -25.5,-50.3 -53.9,-50.3 V 791 c 24.1,0.9 32.9,19.4 33.7,36.5 z"
           id="path4100"
           style="fill:#ffffff" />
        <path
           inkscape:connector-curvature="0"
           class="st0"
           d="m 397.5,876.4 -12.9,-12.7 c 0,0 0,-0.1 0.1,-0.1 l -15.4,-15.4 h -28.9 l 15,15 c -1.2,0.6 -2.3,1.1 -3.6,1.6 -3.8,1.4 -8.1,2.2 -12.8,2.2 -16.9,0 -27.8,-9.8 -32.7,-22 -1.3,-3.3 -2.2,-6.8 -2.7,-10.2 v -11.5 c 0.5,-3.6 1.3,-7.2 2.7,-10.6 2.5,-6.4 6.7,-12.2 12.7,-16.1 1.6,-1 3.3,-1.9 5.1,-2.7 4,-1.7 8.7,-2.7 14,-2.8 v -15.9 h -18.1 -7.6 -64 v 18.7 h 34.5 v 16.1 16.9 c 0,0.9 0,1.7 0,2.6 0,0.7 0,1.3 0,2 0.6,16.7 7.1,33.1 20.5,43.5 0.9,0.7 1.8,1.3 2.7,1.9 8.4,5.6 19.3,9 32.7,9 10.7,0 20.1,-2.1 27.8,-6.2 v 0 c 1.1,-0.6 2.1,-1.2 3.2,-1.9 l 8.2,8.1 h 29 z"
           id="path4102"
           style="fill:#ffffff" />
      </g>
      <g
         id="g4108"
         style="fill:#ffffff">
        <rect
           x="416.70001"
           y="775.09998"
           class="st0"
           width="3.0999999"
           height="110.7"
           id="rect4106"
           style="fill:#ffffff" />
      </g>
      <g
         id="g4142"
         style="fill:#ffffff">
        <g
           id="g4126"
           style="fill:#ffffff">
          <path
             inkscape:connector-curvature="0"
             class="st0"
             d="m 452.6,785.4 h -18.8 v -10.1 c 17.1,0 31.5,0 48.7,0 v 10.1 h -18.8 v 49 h -11.2 v -49 z"
             id="path4110"
             style="fill:#ffffff" />
          <path
             inkscape:connector-curvature="0"
             class="st0"
             d="M 550.3,834.4 H 537 L 519.7,814.6 H 509 v 19.8 h -11.2 v -59.3 c 9.4,0 18.8,0.1 28.2,0.1 14,0.1 21.3,9.4 21.3,19.6 0,8.1 -3.7,16.3 -15,18.6 l 17.9,20.2 v 0.8 z M 509,785.6 v 18.9 h 17 c 7.1,0 10.1,-4.7 10.1,-9.5 0,-4.7 -3.1,-9.5 -10.1,-9.5 h -17 z"
             id="path4112"
             style="fill:#ffffff" />
          <path
             inkscape:connector-curvature="0"
             class="st0"
             d="m 607.4,834.4 h -44.3 c 0,-19.7 0,-39.5 0,-59.2 h 44.3 V 786 h -33.2 v 13.6 h 32 V 810 h -32 v 13.4 h 33.2 z"
             id="path4114"
             style="fill:#ffffff" />
          <path
             inkscape:connector-curvature="0"
             class="st0"
             d="m 666.6,823.2 h -31 l -5.1,11.2 H 618.4 L 645,775.2 h 12.2 l 26.6,59.2 h -12.2 z m -15.5,-35.6 -11,25.2 h 22 z"
             id="path4116"
             style="fill:#ffffff" />
          <path
             inkscape:connector-curvature="0"
             class="st0"
             d="m 719.7,798.8 c -6.7,-0.8 -12.4,-2.2 -12.4,-7 0,-4.2 3.7,-7.4 11.6,-7.4 6.1,0 11.3,3 13.2,6.2 l 8.4,-4.3 c -1.7,-3.5 -4.3,-6 -7.2,-7.7 -4.3,-2.5 -9.6,-3.3 -14.7,-3.3 -4.8,0 -9.8,1.1 -13.8,3.3 -4.6,2.6 -7.8,6.8 -7.8,12.9 0,12.5 10.5,15.6 21.9,16.9 7.4,0.8 12.9,3 12.9,8.2 0,6.1 -6.2,8.4 -12.9,8.4 -6.8,0 -13.2,-2.7 -15.7,-8.9 l -8.8,4.5 c 4.2,10.2 12.9,13.7 24.3,13.7 12.4,0 23.5,-5.3 23.5,-17.8 0,-13.2 -10.9,-16.2 -22.5,-17.7 z"
             id="path4118"
             style="fill:#ffffff" />
          <path
             inkscape:connector-curvature="0"
             class="st0"
             d="m 801.5,775.2 v 32.7 c 0,10.1 -5.2,16.3 -14.5,16.3 -9.2,0 -15.3,-5.7 -15.3,-16.3 v -32.7 h -11.1 v 32.7 c 0,17.8 12.1,26.5 26.3,26.5 14.9,0 25.6,-9 25.6,-26.5 v -32.7 z"
             id="path4120"
             style="fill:#ffffff" />
          <path
             inkscape:connector-curvature="0"
             class="st0"
             d="m 884.5,834.4 h -13.3 l -17.3,-19.8 h -10.7 v 19.8 H 832 v -59.3 c 9.4,0 18.8,0.1 28.2,0.1 14,0.1 21.3,9.4 21.3,19.6 0,8.1 -3.7,16.3 -15,18.6 l 17.9,20.2 v 0.8 z m -41.3,-48.8 v 18.9 h 17 c 7.1,0 10.1,-4.7 10.1,-9.5 0,-4.7 -3.1,-9.5 -10.1,-9.5 h -17 z"
             id="path4122"
             style="fill:#ffffff" />
          <path
             inkscape:connector-curvature="0"
             class="st0"
             d="m 922.4,799.6 15.7,-24.4 h 13.4 v 0.5 L 928,810 v 24.4 H 916.8 V 810 l -22.7,-34.2 v -0.5 h 13.3 z"
             id="path4124"
             style="fill:#ffffff" />
        </g>
        <g
           id="g4140"
           style="fill:#ffffff">
          <path
             inkscape:connector-curvature="0"
             class="st0"
             d="m 471.2,866.8 c 0,4.5 -1.5,9.1 -4.3,12.6 l 4.7,4.5 -1.8,1.8 -4.6,-4.4 c -3,2.6 -7.3,4.3 -12.6,4.3 -12.6,0 -18.8,-9 -18.7,-19.2 0.1,-9.8 6.3,-18.6 18.7,-18.6 12.4,0.1 18.6,8.9 18.6,19 z m -34.6,-0.3 c -0.1,8.8 5.2,16.5 15.9,16.5 10.6,0 15.8,-7.7 15.8,-16.2 0,-8.7 -5.3,-16.3 -15.8,-16.3 -9.4,0.1 -15.9,7 -15.9,16 z"
             id="path4128"
             style="fill:#ffffff" />
          <path
             inkscape:connector-curvature="0"
             class="st0"
             d="m 509.6,848.9 v 22.5 c 0,15.8 -22.7,15.9 -22.7,0 v -22.5 h -2.8 v 22.5 c 0,9.7 7.1,14.5 14.1,14.5 7.1,0 14.2,-4.8 14.2,-14.5 v -22.5 z"
             id="path4130"
             style="fill:#ffffff" />
          <path
             inkscape:connector-curvature="0"
             class="st0"
             d="m 557,885.8 -4.1,-9.1 h -22.1 l -4,9.1 h -3.1 l 16.6,-37 h 3.1 l 16.6,37 z m -5.2,-11.7 -9.9,-22.5 -9.9,22.5 z"
             id="path4132"
             style="fill:#ffffff" />
          <path
             inkscape:connector-curvature="0"
             class="st0"
             d="m 573.5,848.9 24.9,30.6 v -30.6 h 2.8 v 37 h -1.1 l -24.9,-30.5 v 30.5 h -2.9 v -37 z"
             id="path4134"
             style="fill:#ffffff" />
          <path
             inkscape:connector-curvature="0"
             class="st0"
             d="M 627.3,851.5 H 614 V 849 h 29.6 v 2.5 h -13.4 v 34.4 h -2.9 z"
             id="path4136"
             style="fill:#ffffff" />
          <path
             inkscape:connector-curvature="0"
             class="st0"
             d="m 680.3,855.4 c -2.7,-4.3 -7,-5 -11.2,-5 -4.3,0 -11.2,1.6 -11.2,7.5 0,4.7 5.1,5.8 11.3,7 7.1,1.4 14.5,2.6 14.5,10.6 -0.1,8.3 -8.4,10.4 -14.6,10.4 -5.8,0 -12.3,-2.4 -15.2,-8 l 2.5,-1.3 c 2.3,4.5 8.1,6.7 12.6,6.7 4.5,0 11.8,-1.3 11.8,-7.8 0.1,-5.5 -6.1,-6.8 -12.1,-7.9 -6.8,-1.3 -13.7,-2.7 -13.7,-9.5 -0.2,-7.8 8,-10.2 14,-10.2 5.3,0 9.9,0.8 13.5,6.3 z"
             id="path4138"
             style="fill:#ffffff" />
        </g>
      </g>
    </g>
  </g>
</svg>
